<svg id="icon" width="32" height="32" viewBox="0 0 32 32" fill="none" xmlns="http://www.w3.org/2000/svg">
<path opacity="0.2" d="M26.9875 9.21253L16.4875 3.27503C16.3393 3.18946 16.1711 3.14441 16 3.14441C15.8289 3.14441 15.6607 3.18946 15.5125 3.27503L5.0125 9.21253C4.85769 9.30045 4.72879 9.42763 4.63882 9.58125C4.54884 9.73487 4.50096 9.9095 4.5 10.0875V21.9125C4.50096 22.0906 4.54884 22.2652 4.63882 22.4188C4.72879 22.5724 4.85769 22.6996 5.0125 22.7875L15.5125 28.725C15.6607 28.8106 15.8289 28.8557 16 28.8557C16.1711 28.8557 16.3393 28.8106 16.4875 28.725L26.9875 22.7875C27.1423 22.6996 27.2712 22.5724 27.3612 22.4188C27.4512 22.2652 27.499 22.0906 27.5 21.9125V10.0875C27.499 9.9095 27.4512 9.73487 27.3612 9.58125C27.2712 9.42763 27.1423 9.30045 26.9875 9.21253ZM16 20.5C15.11 20.5 14.24 20.2361 13.4999 19.7416C12.7599 19.2472 12.1831 18.5444 11.8425 17.7221C11.5019 16.8998 11.4128 15.995 11.5865 15.1221C11.7601 14.2492 12.1887 13.4474 12.818 12.8181C13.4474 12.1887 14.2492 11.7601 15.1221 11.5865C15.995 11.4129 16.8998 11.502 17.7221 11.8426C18.5443 12.1832 19.2471 12.7599 19.7416 13.5C20.2361 14.24 20.5 15.11 20.5 16C20.5 17.1935 20.0259 18.3381 19.182 19.182C18.3381 20.0259 17.1935 20.5 16 20.5Z" fill="currentColor"/>
<path d="M27.5 21.9125V10.0875C27.499 9.9095 27.4512 9.73487 27.3612 9.58125C27.2712 9.42763 27.1423 9.30045 26.9875 9.21253L16.4875 3.27503C16.3393 3.18946 16.1711 3.14441 16 3.14441C15.8289 3.14441 15.6607 3.18946 15.5125 3.27503L5.0125 9.21253C4.85769 9.30045 4.72879 9.42763 4.63882 9.58125C4.54884 9.73487 4.50096 9.9095 4.5 10.0875V21.9125C4.50096 22.0906 4.54884 22.2652 4.63882 22.4188C4.72879 22.5724 4.85769 22.6996 5.0125 22.7875L15.5125 28.725C15.6607 28.8106 15.8289 28.8557 16 28.8557C16.1711 28.8557 16.3393 28.8106 16.4875 28.725L26.9875 22.7875C27.1423 22.6996 27.2712 22.5724 27.3612 22.4188C27.4512 22.2652 27.499 22.0906 27.5 21.9125V21.9125Z" stroke="currentColor" stroke-width="2" stroke-linecap="round" stroke-linejoin="round"/>
<path d="M16 20.5C18.4853 20.5 20.5 18.4853 20.5 16C20.5 13.5147 18.4853 11.5 16 11.5C13.5147 11.5 11.5 13.5147 11.5 16C11.5 18.4853 13.5147 20.5 16 20.5Z" stroke="currentColor" stroke-width="2" stroke-linecap="round" stroke-linejoin="round"/>
</svg>
