<svg id="icon" width="16" height="16" viewBox="0 0 16 16" fill="none" xmlns="http://www.w3.org/2000/svg">
<path opacity="0.2" d="M8.25004 13.5H2.98129C2.91786 13.5008 2.8549 13.489 2.79614 13.4651C2.73737 13.4412 2.68398 13.4058 2.63912 13.3609C2.59427 13.3161 2.55885 13.2627 2.53496 13.2039C2.51108 13.1451 2.4992 13.0822 2.50004 13.0188V7.75C2.50004 6.22501 3.10584 4.76247 4.18418 3.68414C5.26251 2.6058 6.72505 2 8.25004 2V2C9.00514 2 9.75285 2.14873 10.4505 2.43769C11.1481 2.72666 11.782 3.1502 12.3159 3.68414C12.8498 4.21807 13.2734 4.85195 13.5623 5.54957C13.8513 6.24719 14 6.9949 14 7.75V7.75C14 8.5051 13.8513 9.25281 13.5623 9.95043C13.2734 10.6481 12.8498 11.2819 12.3159 11.8159C11.782 12.3498 11.1481 12.7733 10.4505 13.0623C9.75285 13.3513 9.00514 13.5 8.25004 13.5V13.5Z" fill="currentColor"/>
<path d="M8.25004 13.5H2.98129C2.91786 13.5008 2.8549 13.489 2.79614 13.4651C2.73737 13.4412 2.68398 13.4058 2.63912 13.3609C2.59427 13.3161 2.55885 13.2627 2.53496 13.2039C2.51108 13.1451 2.4992 13.0822 2.50004 13.0188V7.75C2.50004 6.22501 3.10584 4.76247 4.18418 3.68414C5.26251 2.6058 6.72505 2 8.25004 2V2C9.00514 2 9.75285 2.14873 10.4505 2.43769C11.1481 2.72666 11.782 3.1502 12.3159 3.68414C12.8498 4.21807 13.2734 4.85195 13.5623 5.54957C13.8513 6.24719 14 6.9949 14 7.75V7.75C14 8.5051 13.8513 9.25281 13.5623 9.95043C13.2734 10.6481 12.8498 11.2819 12.3159 11.8159C11.782 12.3498 11.1481 12.7733 10.4505 13.0623C9.75285 13.3513 9.00514 13.5 8.25004 13.5V13.5Z" stroke="currentColor" stroke-width="1.5" stroke-linecap="round" stroke-linejoin="round"/>
<path d="M8.25 8.75C8.66421 8.75 9 8.41421 9 8C9 7.58579 8.66421 7.25 8.25 7.25C7.83579 7.25 7.5 7.58579 7.5 8C7.5 8.41421 7.83579 8.75 8.25 8.75Z" fill="currentColor"/>
<path d="M5.25 8.75C5.66421 8.75 6 8.41421 6 8C6 7.58579 5.66421 7.25 5.25 7.25C4.83579 7.25 4.5 7.58579 4.5 8C4.5 8.41421 4.83579 8.75 5.25 8.75Z" fill="currentColor"/>
<path d="M11.25 8.75C11.6642 8.75 12 8.41421 12 8C12 7.58579 11.6642 7.25 11.25 7.25C10.8358 7.25 10.5 7.58579 10.5 8C10.5 8.41421 10.8358 8.75 11.25 8.75Z" fill="currentColor"/>
</svg>
