<svg id="icon" width="16" height="16" viewBox="0 0 16 16" fill="none" xmlns="http://www.w3.org/2000/svg">
<path opacity="0.2" d="M9.5 2V5.5H13L9.5 2Z" fill="currentColor"/>
<path d="M9.85355 1.64645C9.75979 1.55268 9.63261 1.5 9.5 1.5H3.5C3.23478 1.5 2.98043 1.60536 2.79289 1.79289C2.60536 1.98043 2.5 2.23478 2.5 2.5V13.5C2.5 13.7652 2.60536 14.0196 2.79289 14.2071C2.98043 14.3946 3.23478 14.5 3.5 14.5H12.5C12.7652 14.5 13.0196 14.3946 13.2071 14.2071C13.3946 14.0196 13.5 13.7652 13.5 13.5V5.5C13.5 5.36739 13.4473 5.24021 13.3536 5.14645L9.85355 1.64645Z" stroke-width="1.5" stroke="currentColor" stroke-linecap="round" stroke-linejoin="round"/>
<path d="M9.5 2V5.5H13" stroke="currentColor" stroke-linecap="round" stroke-linejoin="round"/>
<path d="M6 8.5H10" stroke="currentColor" stroke-linecap="round" stroke-linejoin="round"/>
<path d="M6 10.5H10" stroke="currentColor" stroke-linecap="round" stroke-linejoin="round"/>
</svg>
