<svg id="icon" width="16" height="16" viewBox="0 0 16 16" fill="none" xmlns="http://www.w3.org/2000/svg">
<path opacity="0.2" d="M8 9.5C8.82843 9.5 9.5 8.82843 9.5 8C9.5 7.17157 8.82843 6.5 8 6.5C7.17157 6.5 6.5 7.17157 6.5 8C6.5 8.82843 7.17157 9.5 8 9.5Z" fill="currentColor"/>
<path d="M8 9.5C8.82843 9.5 9.5 8.82843 9.5 8C9.5 7.17157 8.82843 6.5 8 6.5C7.17157 6.5 6.5 7.17157 6.5 8C6.5 8.82843 7.17157 9.5 8 9.5Z" stroke="currentColor" stroke-linecap="round" stroke-linejoin="round"/>
<path d="M6 5C6.82843 5 7.5 4.32843 7.5 3.5C7.5 2.67157 6.82843 2 6 2C5.17157 2 4.5 2.67157 4.5 3.5C4.5 4.32843 5.17157 5 6 5Z" stroke="currentColor" stroke-linecap="round" stroke-linejoin="round"/>
<path d="M12.5 8C13.3284 8 14 7.32843 14 6.5C14 5.67157 13.3284 5 12.5 5C11.6716 5 11 5.67157 11 6.5C11 7.32843 11.6716 8 12.5 8Z" stroke="currentColor" stroke-linecap="round" stroke-linejoin="round"/>
<path d="M12.5 13C13.3284 13 14 12.3284 14 11.5C14 10.6716 13.3284 10 12.5 10C11.6716 10 11 10.6716 11 11.5C11 12.3284 11.6716 13 12.5 13Z" stroke="currentColor" stroke-linecap="round" stroke-linejoin="round"/>
<path d="M3.5 13.5C4.32843 13.5 5 12.8284 5 12C5 11.1716 4.32843 10.5 3.5 10.5C2.67157 10.5 2 11.1716 2 12C2 12.8284 2.67157 13.5 3.5 13.5Z" stroke="currentColor" stroke-linecap="round" stroke-linejoin="round"/>
<path d="M7.3937 6.63127L6.6062 4.86877" stroke="currentColor" stroke-linecap="round" stroke-linejoin="round"/>
<path d="M11.075 6.97498L9.42505 7.52498" stroke="currentColor" stroke-linecap="round" stroke-linejoin="round"/>
<path d="M11.3188 10.5813L9.18127 8.91876" stroke="currentColor" stroke-linecap="round" stroke-linejoin="round"/>
<path d="M6.88127 8.99377L4.61877 11.0063" stroke="currentColor" stroke-linecap="round" stroke-linejoin="round"/>
</svg>
