<svg id="icon" width="16" height="16" viewBox="0 0 16 16" fill="none" xmlns="http://www.w3.org/2000/svg">
<path d="M5.88123 10.1187L10.1187 5.875" stroke-width="1.5" stroke="currentColor" stroke-linecap="round" stroke-linejoin="round"/>
<path d="M9.06255 11.1812L7.2938 12.95C7.01515 13.2286 6.68435 13.4497 6.32028 13.6005C5.95621 13.7513 5.566 13.8289 5.17193 13.8289C4.37607 13.8289 3.61281 13.5128 3.05005 12.95C2.4873 12.3872 2.17114 11.624 2.17114 10.8281C2.17114 10.0323 2.4873 9.26901 3.05005 8.70625L4.8188 6.9375" stroke-width="1.5" stroke="currentColor" stroke-linecap="round" stroke-linejoin="round"/>
<path d="M11.1812 9.06249L12.95 7.29374C13.5128 6.73098 13.8289 5.96772 13.8289 5.17187C13.8289 4.37601 13.5128 3.61275 12.95 3.04999C12.3872 2.48723 11.624 2.17108 10.8281 2.17108C10.0323 2.17108 9.26901 2.48723 8.70625 3.04999L6.9375 4.81874" stroke-width="1.5" stroke="currentColor" stroke-linecap="round" stroke-linejoin="round"/>
</svg>
